# xmcd
# 
# Track frame offsets:
#   300
#   15323
#   33634
#   51087
#   73483
#   91671
# 
# Disc length: 1488 seconds
# 
# Revision: 0
# Processed by: cddbd v1.5.2PL0 Copyright (c) Steve Scherf et al.
# Submitted via: Synapstar 1.0 
# 
DISCID=4905cc06
DTITLE=Various Artist - New Country Karaoke 8-16-09
DYEAR=1900
DGENRE=Country
TTITLE0=Trailer Choir - Rockin' The Beer Gut
TTITLE1=Randy Rogers Band - Down And Out
TTITLE2=Randy Rogers Band - In My Arms Instead
TTITLE3=Randy Rogers Band - Tonight's Not The Night
TTITLE4=Randy Rogers Band - Kiss Me In The Dark
TTITLE5=Randy Rogers Band - One More Good-Bye
EXTD=MediaType: Karaoke CD+G Producer: Chartbuster
EXTT0=
EXTT1=
EXTT2=
EXTT3=
EXTT4=
EXTT5=
PLAYORDER=
